<svg width="12" height="10" viewBox="0 0 12 10" fill="none" xmlns="http://www.w3.org/2000/svg">
<path d="M1.33268 9.66927C1.01185 9.66927 0.737196 9.55503 0.508724 9.32656C0.280252 9.09809 0.166016 8.82344 0.166016 8.5026V1.5026C0.166016 1.18177 0.280252 0.907118 0.508724 0.678646C0.737196 0.450174 1.01185 0.335938 1.33268 0.335938H10.666C10.9869 0.335938 11.2615 0.450174 11.49 0.678646C11.7184 0.907118 11.8327 1.18177 11.8327 1.5026V8.5026C11.8327 8.82344 11.7184 9.09809 11.49 9.32656C11.2615 9.55503 10.9869 9.66927 10.666 9.66927H1.33268ZM5.99935 5.58594L1.33268 2.66927V8.5026H10.666V2.66927L5.99935 5.58594ZM5.99935 4.41927L10.666 1.5026H1.33268L5.99935 4.41927ZM1.33268 2.66927V1.5026V8.5026V2.66927Z" fill="#68717D"/>
</svg>
