<svg width="334" height="342" viewBox="0 0 334 342" fill="none" xmlns="http://www.w3.org/2000/svg">
<path d="M181.137 258.523H111.562V313.356H181.137V258.523Z" fill="#EBEBEB"/>
<path d="M163.707 312.97C163.611 312.97 163.533 300.747 163.533 285.673C163.533 270.595 163.611 258.375 163.707 258.375C163.802 258.375 163.881 270.595 163.881 285.673C163.881 300.747 163.803 312.97 163.707 312.97Z" fill="#E0E0E0"/>
<path d="M175.238 300.875H169.904V307.036H175.238V300.875Z" fill="#FAFAFA"/>
<path d="M140.69 258.664H132.787V270.364H140.69V258.664Z" fill="#E0E0E0"/>
<path d="M140.69 301.492H132.787V313.192H140.69V301.492Z" fill="#E0E0E0"/>
<path d="M307.378 244.781H219.652V313.92H307.378V244.781Z" fill="#EBEBEB"/>
<path d="M285.398 313.431C285.302 313.431 285.225 298.02 285.225 279.014C285.225 260.002 285.303 244.594 285.398 244.594C285.494 244.594 285.572 260.002 285.572 279.014C285.573 298.021 285.494 313.431 285.398 313.431Z" fill="#E0E0E0"/>
<path d="M299.938 298.18H293.213V305.948H299.938V298.18Z" fill="#FAFAFA"/>
<path d="M256.379 244.961H246.414V259.714H256.379V244.961Z" fill="#E0E0E0"/>
<path d="M256.379 298.961H246.414V313.714H256.379V298.961Z" fill="#E0E0E0"/>
<path d="M54.4161 246.809C57.9665 244.938 62.1475 244.694 66.0894 245.36C68.2069 245.717 70.4147 246.365 71.8555 247.99C73.2964 249.615 73.5696 252.476 71.915 253.873C70.9297 254.704 69.5563 254.83 68.2791 254.815C65.1936 254.778 61.7694 254.224 59.3045 256.12C57.8977 257.203 56.9618 259.002 55.2798 259.535C53.6345 260.055 51.7781 259.063 50.9057 257.546C50.0333 256.029 50.0046 254.133 50.4107 252.422C50.4107 252.422 50.8396 248.695 54.4161 246.809Z" fill="#EBEBEB"/>
<path d="M46.2821 230.766C48.4531 233.935 52.6729 232.886 54.6294 230.952C56.586 229.018 57.413 226.215 58.1658 223.542C59.8859 217.434 61.6201 211.028 60.3408 204.808C59.9587 202.949 59.278 201.094 57.9995 199.715C56.7209 198.335 54.7543 197.515 52.9568 198C50.8292 198.574 49.5065 200.704 48.5513 202.729C45.7424 208.684 44.2547 215.284 44.2327 221.894C44.2213 224.98 44.578 228.218 46.2821 230.766Z" fill="#EBEBEB"/>
<path d="M40.3191 235.312C42.6765 232.453 43.124 228.283 42.0746 224.703C41.0259 221.121 38.6558 218.075 35.925 215.587C32.7226 212.672 28.9591 210.402 24.9124 208.948C23.3198 208.376 21.6405 207.925 19.9598 208.089C18.2791 208.253 16.5871 209.13 15.8035 210.658C14.6445 212.917 15.7554 215.656 16.9578 217.891C19.0754 221.829 21.4962 225.595 24.1909 229.146C26.3586 232.002 28.8422 234.819 32.1461 236.11C35.4501 237.401 38.8822 237.248 40.6337 234.907" fill="#EBEBEB"/>
<path d="M46.1356 278.566C46.1763 278.569 46.2425 278.055 46.332 277.126C46.4315 276.079 46.5571 274.763 46.7061 273.198C46.8851 271.544 47.1216 269.576 47.5711 267.434C48.0193 265.297 48.7207 262.981 49.6212 260.631C50.5537 258.296 51.6913 256.174 53.0207 254.476C54.3406 252.771 55.875 251.537 57.3179 250.826C58.7561 250.1 60.046 249.806 60.9371 249.675C61.8363 249.58 62.3399 249.508 62.3399 249.467C62.3406 249.426 61.8356 249.419 60.9124 249.444C59.9973 249.507 58.6546 249.743 57.1382 250.448C55.6179 251.137 53.9893 252.39 52.6052 254.13C51.2097 255.863 50.0307 258.033 49.0815 260.409C48.165 262.8 47.4743 265.14 47.0461 267.323C46.6192 269.503 46.4242 271.492 46.2966 273.159C46.1743 274.828 46.1282 276.179 46.1062 277.113C46.0855 278.046 46.0955 278.564 46.1356 278.566Z" fill="#E0E0E0"/>
<path d="M46.3989 275.543C46.4189 275.541 46.4316 275.311 46.437 274.874C46.4356 274.373 46.4343 273.74 46.4323 272.964C46.4276 271.306 46.4283 268.907 46.5151 265.944C46.6588 260.019 47.1578 253.641 48.1223 244.651C49.0355 236.197 50.2613 226.358 51.5552 219.962C51.8324 218.507 52.1116 217.197 52.3748 216.051C52.6253 214.902 52.8398 213.911 53.0462 213.11C53.2239 212.356 53.3682 211.741 53.483 211.253C53.5766 210.827 53.6166 210.6 53.5973 210.594C53.5779 210.588 53.5004 210.803 53.3702 211.22C53.2279 211.701 53.0482 212.307 52.8271 213.051C52.5866 213.846 52.3394 214.829 52.0582 215.974C51.7643 217.116 51.4563 218.422 51.1524 219.874C49.8725 225.671 48.5171 233.772 47.5439 242.784C46.5773 251.793 46.1424 259.996 46.1037 265.937C46.0689 268.907 46.131 271.311 46.2052 272.97C46.2513 273.746 46.2894 274.378 46.3194 274.879C46.3522 275.315 46.3789 275.543 46.3989 275.543Z" fill="#E0E0E0"/>
<path d="M46.4385 259.72C46.4793 259.718 46.4719 259.009 46.4252 257.724C46.353 256.441 46.1807 254.588 45.8273 252.317C45.4525 250.052 44.9288 247.362 44.1065 244.439C43.7498 243.103 42.9121 239.902 40.8828 235.118C38.2088 228.636 34.5762 223.337 31.4152 220.055C30.6737 219.184 29.8481 218.555 29.1881 217.94C28.8461 217.645 28.5441 217.35 28.2369 217.116C27.9276 216.899 27.6397 216.696 27.3731 216.508C26.3331 215.781 25.7506 215.398 25.7292 215.432C25.6357 215.561 28.0592 217.019 31.1186 220.345C34.166 223.664 37.6971 228.927 40.3497 235.354C41.8286 238.84 42.86 241.95 43.5922 244.59C44.4379 247.484 44.999 250.146 45.4232 252.389C45.8266 254.636 46.0598 256.471 46.2007 257.742C46.3156 259.016 46.3991 259.721 46.4385 259.72Z" fill="#E0E0E0"/>
<path d="M30.4355 285.227L31.9866 306.947H59.2945L60.8456 285.227H30.4355Z" fill="#EBEBEB"/>
<path d="M64.1053 276.664H27.7988V285.225H64.1053V276.664Z" fill="#EBEBEB"/>
<path d="M27.7988 306.109V308.483H29.5049H63.5054V306.109H27.7988Z" fill="#E0E0E0"/>
<path d="M31.1759 312.403L29.5039 308.227H62.2038L60.2526 312.403H31.1759Z" fill="#E0E0E0"/>
<path d="M60.3388 292.325C60.3448 292.33 60.3014 292.398 60.2119 292.525C60.1036 292.671 59.9694 292.854 59.8037 293.077C59.4163 293.585 58.8832 294.282 58.2132 295.158L58.1424 295.251L58.0736 295.154C57.0736 293.741 55.7376 291.853 54.1651 289.63H54.3902C53.2279 291.312 51.9327 293.186 50.5426 295.198L50.4217 295.372L50.2867 295.208C48.8665 293.482 47.3241 291.606 45.7236 289.66L45.9868 289.656C45.9073 289.758 45.8218 289.868 45.7356 289.979C44.3201 291.791 42.9507 293.546 41.6555 295.206L41.5192 295.38L41.3936 295.198C40.0082 293.196 38.7143 291.325 37.5439 289.632L37.7677 289.643C35.8706 291.852 34.2614 293.725 33.0269 295.163L32.9428 295.261L32.8786 295.15C32.2534 294.077 31.7551 293.222 31.3943 292.602C31.2394 292.325 31.1138 292.101 31.0136 291.923C30.9294 291.768 30.89 291.686 30.8974 291.681C30.9047 291.676 30.9588 291.75 31.0563 291.896C31.1672 292.067 31.3062 292.283 31.4778 292.549C31.8573 293.158 32.3803 293.998 33.0363 295.051L32.888 295.039C34.1031 293.584 35.6862 291.688 37.5533 289.452L37.6709 289.312L37.7771 289.464C38.9574 291.148 40.2634 293.011 41.6608 295.004L41.3996 294.997C42.6922 293.335 44.0583 291.578 45.4704 289.762C45.5566 289.652 45.6421 289.542 45.7216 289.44L45.8512 289.273L45.9848 289.437C47.5813 291.387 49.1191 293.266 50.5352 294.995L50.28 295.006C51.6842 293.004 52.9921 291.14 54.1658 289.467L54.28 289.304L54.3909 289.467C55.9307 291.713 57.2379 293.621 58.2165 295.05L58.0776 295.046C58.775 294.192 59.3288 293.513 59.7322 293.019C59.9119 292.806 60.0576 292.634 60.1751 292.495C60.2773 292.378 60.3328 292.32 60.3388 292.325Z" fill="#F5F5F5"/>
<path d="M61.2271 285.079C61.2271 285.176 54.3847 285.253 45.9466 285.253C37.505 285.253 30.6641 285.176 30.6641 285.079C30.6641 284.984 37.505 284.906 45.9466 284.906C54.3847 284.906 61.2271 284.983 61.2271 285.079Z" fill="#F5F5F5"/>
<path d="M310.391 313.544C310.391 313.643 246.188 313.722 167.007 313.722C87.7988 313.722 23.6094 313.642 23.6094 313.544C23.6094 313.446 87.7988 313.367 167.007 313.367C246.188 313.367 310.391 313.446 310.391 313.544Z" fill="#263238"/>
<path d="M99.672 63.0391C102.808 66.927 104.547 71.9651 104.494 77.0033C104.463 79.8824 103.944 83.0571 105.583 85.399C106.827 87.1764 109.095 88.0658 110.106 89.9921C111.322 92.3081 110.285 95.2336 111.033 97.7482C112.093 101.313 116.18 102.803 118.602 105.588C120.703 108.002 121.481 111.535 120.634 114.648C119.788 117.761 117.359 120.366 114.371 121.423C112.767 121.99 110.932 122.112 109.413 121.338C107.775 120.503 106.762 118.791 105.942 117.119C104.329 113.833 90.1857 96.0465 89.3848 92.4616" fill="#263238"/>
<path d="M89.3842 58.8457C83.6013 57.8942 78.0429 61.8177 75.606 67.2605C73.1691 72.7034 73.103 78.8937 72.9233 84.8765C72.7436 90.8593 72.3321 97.1043 69.3435 102.252C67.4464 105.52 64.5092 108.385 64.0483 112.155C63.6361 115.53 65.3455 118.93 64.7777 122.281C64.2834 125.199 62.1077 127.738 62.1939 130.698C62.2974 134.259 65.8819 136.942 69.3676 137.038C72.8525 137.133 76.109 135.267 78.8411 133.055C83.2746 129.465 86.8685 124.799 89.2412 119.552" fill="#263238"/>
<path d="M79.8692 72.9385C79.105 66.7066 83.5172 61.0112 89.7102 60.4084C95.5472 59.8398 100.735 64.2814 101.609 70.2055C102.376 75.3992 103.035 80.6414 103.012 82.5452C102.941 88.287 99.6527 90.5218 98.3201 91.1934C98.0161 91.347 97.1771 91.5204 96.8411 91.5695C96.8204 91.5729 96.8057 91.5927 96.8097 91.6139L98.0575 98.2049C98.6233 102.524 96.264 106.375 92.0449 107.003C87.8118 107.634 84.5025 104.317 83.8559 99.9953L79.8692 72.9385Z" fill="#FFBE9D"/>
<path d="M100.461 72.7186C100.368 72.8531 99.626 72.4463 98.6754 72.5903C97.7235 72.7206 97.0969 73.3247 96.9767 73.221C96.9186 73.1759 97.0001 72.9466 97.2713 72.6749C97.5385 72.4053 98.0174 72.1104 98.6106 72.0244C99.2038 71.9398 99.7335 72.0879 100.053 72.2736C100.377 72.4599 100.507 72.6578 100.461 72.7186Z" fill="#263238"/>
<path d="M92.0021 74.8202C91.9093 74.9546 91.1665 74.5478 90.2166 74.6918C89.2653 74.8215 88.6381 75.4256 88.5178 75.3219C88.4597 75.2768 88.5399 75.0481 88.8131 74.7765C89.0803 74.5069 89.5593 74.212 90.1518 74.126C90.745 74.0413 91.2753 74.1895 91.594 74.3751C91.9186 74.5615 92.0482 74.7594 92.0021 74.8202Z" fill="#263238"/>
<path d="M95.4683 80.0337C95.4563 79.9791 96.0321 79.7866 96.9726 79.5191C97.2118 79.457 97.4349 79.3737 97.4516 79.1983C97.483 79.0105 97.3434 78.758 97.1844 78.487C96.8704 77.9205 96.5418 77.3266 96.1964 76.7041C94.815 74.1622 93.7776 72.0571 93.8778 72.0011C93.9787 71.9452 95.1797 73.9601 96.5611 76.5021C96.8958 77.13 97.2158 77.728 97.5204 78.3007C97.6527 78.5689 97.8564 78.8652 97.7856 79.2556C97.7468 79.4508 97.5879 79.6119 97.4382 79.6781C97.2893 79.7498 97.153 79.773 97.0341 79.7982C96.0775 79.9955 95.4803 80.089 95.4683 80.0337Z" fill="#263238"/>
<path d="M96.8023 91.5788C96.8023 91.5788 93.1737 92.434 88.1777 90.2969C88.1777 90.2969 90.3347 95.0415 97.139 93.3548L96.8023 91.5788Z" fill="#EB996E"/>
<path d="M91.5236 72.2722C91.4675 72.5507 90.5002 72.5664 89.4034 72.8702C88.3012 73.1514 87.4488 73.619 87.2671 73.4039C87.1849 73.3002 87.3058 73.0285 87.6338 72.7179C87.9578 72.4087 88.4989 72.0804 89.1575 71.9043C89.8168 71.7296 90.4454 71.7473 90.8763 71.8552C91.3098 71.9637 91.5463 72.1405 91.5236 72.2722Z" fill="#263238"/>
<path d="M99.6806 70.5672C99.5443 70.8129 98.857 70.6812 98.0674 70.7883C97.2745 70.8668 96.6332 71.1535 96.4468 70.9453C96.3633 70.8429 96.4368 70.6061 96.6986 70.3542C96.9565 70.103 97.4121 69.8614 97.9565 69.7972C98.5002 69.7344 98.9979 69.8648 99.3045 70.0498C99.6151 70.2348 99.7387 70.4484 99.6806 70.5672Z" fill="#263238"/>
<path d="M89.9407 76.0785C90.0061 76.5004 90.4089 76.7918 90.8418 76.7304C91.2733 76.669 91.5712 76.2779 91.5064 75.856C91.441 75.4342 91.0375 75.142 90.606 75.2035C90.1731 75.2649 89.8752 75.656 89.9407 76.0785Z" fill="#263238"/>
<path d="M98.3625 74.2113C98.4273 74.6332 98.8315 74.9246 99.2637 74.8632C99.6952 74.8018 99.9931 74.4107 99.9283 73.9888C99.8629 73.567 99.4594 73.2749 99.0279 73.3363C98.595 73.3977 98.2971 73.7895 98.3625 74.2113Z" fill="#263238"/>
<path d="M96.9656 81.9189C96.3537 81.738 95.8266 82.0548 95.5788 82.508C95.3303 82.9612 95.3897 83.5817 95.7471 83.951C96.1045 84.3209 96.7404 84.3789 97.1352 84.0513C97.4024 83.8288 97.5374 83.4738 97.5714 83.123C97.6028 82.7988 97.5514 82.452 97.3557 82.1954C97.1599 81.938 96.7979 81.8002 96.5066 81.9326" fill="#EB996E"/>
<path d="M100.868 65.5593C100.433 63.3996 98.9771 61.5573 97.2056 60.2986C95.7006 59.2297 93.9204 58.5219 92.0887 58.4645C90.2564 58.4072 88.3786 59.0365 87.0553 60.3321C86.0767 61.2897 85.575 62.6467 85.5296 64.0296L85.6358 63.0753C85.3613 63.859 85.3619 64.7101 85.6479 65.4808C85.6485 65.4821 85.6485 65.4842 85.6485 65.4855L85.6479 65.4808C85.8028 65.8992 85.9885 66.3176 86.1529 66.7374C86.6205 67.9305 87.5263 68.9373 88.6498 69.5141C89.1675 69.7796 89.7414 69.9578 90.3205 69.9298C90.899 69.9018 91.4828 69.6472 91.8342 69.1762C92.3359 68.5039 92.2777 67.5715 92.1963 66.7299C92.6932 67.523 93.2203 68.3455 94.0192 68.8152C94.8182 69.2848 95.9718 69.2684 96.5342 68.5217C97.0787 67.7995 96.8629 66.7613 96.5476 65.9081C97.058 66.7033 97.7894 67.349 98.6338 67.7503C99.1007 67.9722 99.6518 68.1176 100.125 67.9087C100.526 67.7312 100.796 67.321 100.898 66.8869C101.001 66.4534 100.956 65.9968 100.868 65.5593Z" fill="#263238"/>
<path d="M96.0408 67.3405C95.98 67.3425 95.99 66.531 95.7335 65.2723C95.4757 64.0348 94.8624 62.2853 93.4269 60.9925C92.7195 60.3543 91.9059 59.9127 91.1156 59.7175C90.324 59.5175 89.5712 59.5413 88.9647 59.6622C87.7362 59.9175 87.141 60.5127 87.1043 60.4505C87.0923 60.4369 87.2198 60.2772 87.5138 60.0601C87.8057 59.8431 88.2766 59.583 88.9106 59.4171C89.5418 59.2574 90.3394 59.2035 91.1891 59.3987C92.0388 59.5898 92.9099 60.0519 93.6574 60.7263C95.1751 62.0942 95.7749 63.9488 95.9753 65.2245C96.0775 65.8743 96.1002 66.406 96.0956 66.7719C96.0902 67.1398 96.0622 67.3412 96.0408 67.3405Z" fill="#455A64"/>
<path d="M157.565 146.925L131.879 136.521C131.879 136.521 118.721 118.889 118.996 118.547L109.76 128.883L123.184 147.452L154.291 154.893L169.023 155.014C167.883 149.225 157.565 146.925 157.565 146.925Z" fill="#FFBE9D"/>
<path d="M101.581 96.6271L98.0845 95.2422L82.9743 97.1998V99.9281L82.5415 99.982C82.5415 99.982 77.8481 100.854 73.285 103.653C67.76 107.043 64.8882 113.58 65.9116 120.083C66.5262 123.987 67.7172 128.733 70.0118 131.476C74.3999 136.721 78.4079 130.238 78.4079 130.238C78.4079 130.238 81.1627 136.658 81.0044 139.694C80.8721 142.236 79.7713 147.535 79.4172 149.189C79.3578 149.468 79.5368 149.737 79.8113 149.789L111.688 155.811L111.843 147.85L110.829 115.105L109.422 102.387C109.422 102.389 109.467 96.3131 101.581 96.6271Z" fill="#E8505B"/>
<path d="M108.934 100.273L121.087 118.217L111.302 130.396L108.934 100.273Z" fill="#E8505B"/>
<path d="M111.538 138.037C111.514 138.036 111.498 137.624 111.49 136.879C111.48 136.074 111.467 135.011 111.451 133.726C111.388 131.066 111.241 127.389 110.723 123.366C110.219 119.34 109.454 115.744 108.868 113.151C108.58 111.9 108.342 110.865 108.162 110.081C107.995 109.356 107.915 108.952 107.937 108.945C107.961 108.939 108.086 109.331 108.293 110.046C108.5 110.761 108.783 111.801 109.107 113.092C109.755 115.674 110.563 119.276 111.068 123.321C111.589 127.363 111.698 131.058 111.698 133.724C111.685 135.057 111.666 136.137 111.625 136.881C111.592 137.626 111.562 138.038 111.538 138.037Z" fill="#263238"/>
<path d="M81.6323 110.752C81.6303 110.81 80.7098 110.798 79.2302 110.879C77.7506 110.958 75.7111 111.165 73.4987 111.631C71.2863 112.101 69.3338 112.739 67.9456 113.267C66.5562 113.793 65.7159 114.177 65.6918 114.126C65.6811 114.104 65.8809 113.984 66.2509 113.788C66.6197 113.588 67.1674 113.328 67.8555 113.033C69.2309 112.441 71.1928 111.758 73.4279 111.283C75.6631 110.812 77.7292 110.642 79.2215 110.627C79.9676 110.619 80.5715 110.635 80.9877 110.669C81.4038 110.7 81.633 110.728 81.6323 110.752Z" fill="#FAFAFA"/>
<path d="M109.784 118.965C109.792 119.011 109.215 119.153 108.269 119.301C107.324 119.449 106.007 119.592 104.546 119.644C103.085 119.695 101.761 119.644 100.808 119.562C99.8539 119.481 99.2694 119.379 99.2735 119.333C99.2775 119.281 99.8686 119.294 100.82 119.311C101.771 119.329 103.084 119.339 104.534 119.29C105.983 119.238 107.292 119.136 108.24 119.052C109.189 118.969 109.777 118.914 109.784 118.965Z" fill="#FAFAFA"/>
<path d="M115.365 110.848C115.427 110.915 114.351 112.013 112.758 113.004C111.168 114.003 109.722 114.481 109.692 114.394C109.653 114.297 111.018 113.68 112.576 112.7C114.138 111.729 115.297 110.769 115.365 110.848Z" fill="#FAFAFA"/>
<path d="M110.452 102.528C110.512 102.589 109.079 103.906 106.912 104.834C104.752 105.778 102.83 105.913 102.828 105.827C102.81 105.718 104.669 105.429 106.777 104.506C108.892 103.602 110.388 102.439 110.452 102.528Z" fill="#FAFAFA"/>
<path d="M111.116 132.857C111.126 132.879 110.901 132.999 110.485 133.196C110.071 133.396 109.456 133.654 108.687 133.942C107.149 134.52 104.959 135.166 102.482 135.558C100.002 135.944 97.7244 136 96.0871 135.92C95.2682 135.881 94.6068 135.824 94.1526 135.76C93.6984 135.7 93.4485 135.654 93.4512 135.63C93.4565 135.572 94.4645 135.655 96.0938 135.669C97.7217 135.684 99.9742 135.589 102.43 135.207C104.883 134.819 107.06 134.219 108.608 133.705C110.157 133.192 111.094 132.803 111.116 132.857Z" fill="#FAFAFA"/>
<path d="M111.363 142.111C111.368 142.122 111.27 142.179 111.078 142.277C110.848 142.388 110.569 142.524 110.232 142.687C109.497 143.043 108.409 143.505 107.046 144.026C105.685 144.552 104.034 145.096 102.178 145.618C100.317 146.12 98.2477 146.589 96.0527 146.944C93.855 147.285 91.7434 147.479 89.8209 147.576C87.8971 147.654 86.1623 147.647 84.7087 147.567C83.2558 147.492 82.0821 147.388 81.2758 147.276C80.9064 147.225 80.6005 147.182 80.348 147.147C80.1362 147.114 80.026 147.091 80.0274 147.078C80.0287 147.066 80.1416 147.066 80.3553 147.076C80.6092 147.093 80.9165 147.114 81.2885 147.139C82.0968 147.208 83.2692 147.273 84.7174 147.315C86.1656 147.362 87.8917 147.344 89.8042 147.248C91.716 147.134 93.8129 146.932 95.9986 146.592C98.1809 146.239 100.239 145.782 102.095 145.3C103.945 144.799 105.596 144.282 106.962 143.788C108.329 143.3 109.428 142.875 110.178 142.558C110.524 142.42 110.811 142.305 111.048 142.21C111.25 142.135 111.358 142.1 111.363 142.111Z" fill="#FAFAFA"/>
<path d="M52.7508 287.219L49.1402 303.896L42.5624 316.245C42.0882 317.136 42.4509 318.249 43.352 318.673C43.857 318.91 44.4375 318.884 44.9185 318.6C47.9786 316.794 59.2043 310.09 59.4014 308.854C59.6298 307.424 64.3526 291.521 64.3526 291.521L52.7508 287.219Z" fill="#E8505B"/>
<g opacity="0.6">
<path d="M43.3516 318.672L59.6701 307.734L59.5011 308.437C59.3555 309.045 59.0055 309.581 58.5091 309.947C57.1812 310.927 53.4564 313.549 44.9668 318.613C44.4731 318.907 43.8646 318.93 43.3516 318.672Z" fill="white"/>
</g>
<g opacity="0.6">
<path d="M57.624 301.545C57.1484 301.731 56.8644 302.326 57.0261 302.819C57.1878 303.313 57.7776 303.613 58.2566 303.436C58.7355 303.259 59.0976 302.556 58.8831 302.084C58.6687 301.612 57.9566 301.298 57.5338 301.588" fill="white"/>
</g>
<path d="M48.8034 312.354C48.7005 312.377 48.5428 311.416 47.6898 310.707C46.8575 309.972 45.9042 309.981 45.9083 309.874C45.9042 309.829 46.1401 309.752 46.5335 309.793C46.9236 309.83 47.4594 310.023 47.9256 310.42C48.3899 310.819 48.6684 311.325 48.7726 311.711C48.8802 312.1 48.8468 312.351 48.8034 312.354Z" fill="#263238"/>
<path d="M47.1127 314.286C47.0186 314.338 46.6264 313.668 45.8462 313.212C45.0753 312.738 44.3125 312.716 44.3111 312.606C44.2844 312.51 45.1502 312.353 46.0319 312.888C46.919 313.414 47.2083 314.262 47.1127 314.286Z" fill="#263238"/>
<path d="M51.6381 310.048C51.5432 310.108 50.946 309.074 49.7924 308.256C48.6514 307.419 47.4985 307.191 47.5218 307.079C47.5165 306.984 48.7783 307.055 50.0041 307.95C51.2386 308.831 51.7276 310.021 51.6381 310.048Z" fill="#263238"/>
<path d="M53.1511 305.071C53.0836 305.16 52.2787 304.551 51.1224 304.216C49.9701 303.864 48.9714 303.935 48.9614 303.824C48.936 303.732 49.9854 303.481 51.2246 303.857C52.4671 304.22 53.2212 305.007 53.1511 305.071Z" fill="#263238"/>
<path d="M54.3321 300.2C54.2586 300.283 53.4897 299.505 52.2433 299.253C51.0021 298.974 49.9928 299.372 49.958 299.266C49.94 299.225 50.1671 299.062 50.5946 298.934C51.0188 298.806 51.6487 298.744 52.3187 298.886C52.9881 299.03 53.5412 299.344 53.8799 299.636C54.2212 299.926 54.3648 300.169 54.3321 300.2Z" fill="#263238"/>
<path d="M52.4946 298.333C52.4739 298.328 52.4906 298.096 52.6229 297.7C52.7551 297.308 53.0117 296.744 53.5053 296.179C53.7545 295.915 54.0324 295.564 54.538 295.46C54.7899 295.406 55.1152 295.533 55.2555 295.801C55.3951 296.063 55.3897 296.35 55.3323 296.614C55.0624 297.663 53.9335 298.46 52.7378 298.321C51.5427 298.159 50.6516 297.216 50.4091 296.192C50.3644 295.931 50.3644 295.625 50.5574 295.376C50.7491 295.124 51.1059 295.094 51.329 295.194C51.7932 295.388 52.0297 295.748 52.2622 296.03C52.7111 296.63 52.9415 297.2 53.0604 297.596C53.18 297.996 53.1934 298.228 53.172 298.232C53.1045 298.261 52.9576 297.314 52.0598 296.196C51.8286 295.932 51.5681 295.607 51.2288 295.487C51.0638 295.428 50.9014 295.46 50.8079 295.584C50.7137 295.702 50.6977 295.919 50.7411 296.126C50.9522 296.968 51.7685 297.828 52.7812 297.948C53.7872 298.076 54.7792 297.374 55.0036 296.532C55.0551 296.328 55.0511 296.11 54.9736 295.962C54.8974 295.816 54.7451 295.743 54.5808 295.768C54.2334 295.818 53.9382 296.114 53.695 296.36C52.7191 297.407 52.5628 298.367 52.4946 298.333Z" fill="#263238"/>
<g opacity="0.3">
<path d="M52.3297 289.028L51.5488 292.853L63.3678 294.857L64.3531 291.521L52.7512 287.219L52.3297 289.028Z" fill="black"/>
</g>
<path d="M105.559 293.389L104.583 306.715C104.583 306.715 117.512 312.205 117.566 314.685L92.2109 313.68L92.897 292.852L105.559 293.389Z" fill="#E8505B"/>
<g opacity="0.6">
<path d="M96.7845 305.278C96.2889 305.396 95.9282 305.946 96.023 306.457C96.1179 306.968 96.6623 307.348 97.16 307.239C97.6576 307.131 98.1105 306.484 97.9602 305.986C97.8099 305.489 97.1466 305.079 96.689 305.307" fill="white"/>
</g>
<g opacity="0.6">
<path d="M92.2109 313.683L92.3606 311.586L116.615 313.333C116.615 313.333 117.725 313.88 117.566 314.688L92.2109 313.683Z" fill="white"/>
</g>
<path d="M104.999 306.603C104.99 306.729 104.369 306.762 103.745 307.144C103.11 307.51 102.775 308.046 102.663 307.992C102.55 307.962 102.763 307.213 103.527 306.764C104.288 306.307 105.03 306.488 104.999 306.603Z" fill="#263238"/>
<path d="M107.616 307.83C107.64 307.954 107.095 308.148 106.655 308.666C106.199 309.171 106.071 309.745 105.948 309.735C105.831 309.75 105.774 309.006 106.334 308.372C106.888 307.734 107.618 307.71 107.616 307.83Z" fill="#263238"/>
<path d="M109.002 311.139C108.889 311.161 108.741 310.523 109.085 309.842C109.424 309.159 110.019 308.909 110.067 309.016C110.133 309.123 109.743 309.48 109.468 310.043C109.182 310.6 109.125 311.131 109.002 311.139Z" fill="#263238"/>
<path d="M104.891 303.534C104.835 303.648 104.273 303.45 103.572 303.472C102.87 303.478 102.316 303.696 102.256 303.585C102.188 303.491 102.737 303.045 103.564 303.032C104.39 303.012 104.956 303.438 104.891 303.534Z" fill="#263238"/>
<g opacity="0.3">
<path d="M105.363 296.028L105.192 298.403L92.7344 297.794L92.8185 295.047L105.363 296.028Z" fill="black"/>
</g>
<path d="M105.039 300.847C105.039 300.899 104.546 300.958 103.77 300.79C103.383 300.706 102.93 300.557 102.457 300.32C102.221 300.201 101.98 300.061 101.743 299.896C101.629 299.814 101.493 299.731 101.371 299.576C101.239 299.438 101.173 299.1 101.339 298.9C101.477 298.707 101.709 298.63 101.893 298.633C102.08 298.634 102.23 298.679 102.367 298.719C102.647 298.8 102.908 298.907 103.146 299.027C103.622 299.271 104.005 299.571 104.287 299.858C104.854 300.438 105.037 300.919 104.993 300.941C104.936 300.981 104.665 300.573 104.084 300.09C103.794 299.85 103.422 299.598 102.976 299.393C102.753 299.292 102.512 299.203 102.256 299.135C101.99 299.052 101.762 299.041 101.688 299.161C101.661 299.206 101.657 299.225 101.71 299.307C101.766 299.384 101.872 299.46 101.983 299.541C102.202 299.7 102.423 299.838 102.639 299.96C103.073 300.201 103.49 300.371 103.848 300.49C104.568 300.724 105.044 300.778 105.039 300.847Z" fill="#263238"/>
<path d="M104.872 301.024C104.827 301.041 104.598 300.578 104.584 299.757C104.578 299.349 104.639 298.859 104.812 298.343C104.899 298.086 105.015 297.824 105.165 297.569C105.323 297.319 105.518 296.983 106 296.945C106.251 296.946 106.452 297.154 106.516 297.328C106.594 297.507 106.604 297.658 106.628 297.809C106.664 298.113 106.647 298.409 106.596 298.682C106.496 299.231 106.257 299.681 106.003 300.001C105.482 300.653 104.96 300.783 104.951 300.74C104.912 300.676 105.353 300.448 105.757 299.818C105.956 299.507 106.137 299.094 106.205 298.614C106.239 298.375 106.245 298.121 106.21 297.863C106.181 297.586 106.089 297.36 105.987 297.384C105.861 297.377 105.638 297.576 105.526 297.792C105.387 298.019 105.274 298.252 105.185 298.482C105.008 298.945 104.922 299.39 104.89 299.768C104.826 300.528 104.94 301.007 104.872 301.024Z" fill="#263238"/>
<path d="M79.3073 149.695C79.3073 149.695 75.2812 149.875 72.6286 163.883C69.976 177.891 49.5859 291.382 49.5859 291.382L64.3527 291.519L92.2117 183.619L90.3607 294.855L105.363 296.028C105.363 296.028 116.622 172.968 116.727 165.808C116.86 156.881 111.842 147.852 111.842 147.852L79.3073 149.695Z" fill="#263238"/>
<path d="M99.6039 148.492C99.698 148.512 98.1657 156.515 96.1817 166.364C94.1971 176.217 92.5124 184.186 92.4182 184.166C92.324 184.146 93.8564 176.146 95.841 166.293C97.8243 156.443 99.5097 148.472 99.6039 148.492Z" fill="#455A64"/>
<path d="M101.907 150.491C101.882 150.457 102.307 150.328 102.765 150.746C102.976 150.947 103.183 151.283 103.168 151.711C103.16 152.145 102.839 152.568 102.412 152.747C101.988 152.934 101.468 152.874 101.159 152.577C100.847 152.289 100.758 151.903 100.764 151.608C100.791 150.981 101.178 150.76 101.185 150.803C101.231 150.838 100.967 151.095 101.01 151.601C101.032 151.843 101.135 152.137 101.366 152.327C101.59 152.521 101.952 152.558 102.278 152.419C102.602 152.278 102.829 151.987 102.849 151.689C102.877 151.388 102.743 151.106 102.59 150.922C102.264 150.537 101.9 150.55 101.907 150.491Z" fill="#455A64"/>
<path d="M101.268 156.045C101.259 156.002 101.684 156.059 101.915 156.613C102.018 156.874 102.064 157.253 101.875 157.617C101.688 157.99 101.231 158.211 100.79 158.171C100.348 158.141 99.9293 157.85 99.8017 157.452C99.6688 157.062 99.7724 156.695 99.9133 156.453C100.227 155.942 100.654 155.953 100.639 155.994C100.66 156.048 100.324 156.132 100.13 156.57C100.04 156.78 99.9928 157.072 100.1 157.334C100.199 157.595 100.485 157.789 100.816 157.816C101.148 157.841 101.46 157.696 101.597 157.453C101.742 157.211 101.74 156.915 101.683 156.694C101.558 156.231 101.239 156.094 101.268 156.045Z" fill="#455A64"/>
<path d="M87.1149 150.633C87.135 150.64 87.0822 150.892 86.9392 151.335C86.797 151.778 86.5478 152.405 86.161 153.142C85.3995 154.611 83.9793 156.507 81.8758 157.922C79.7723 159.34 77.5071 159.926 75.8858 160.062C75.0709 160.135 74.4082 160.121 73.954 160.08C73.4997 160.04 73.2519 159.99 73.2539 159.969C73.2573 159.902 74.2626 160.019 75.8591 159.813C77.4456 159.616 79.638 159.005 81.6847 157.627C83.7308 156.249 85.1443 154.432 85.9473 153.02C86.7615 151.6 87.0535 150.61 87.1149 150.633Z" fill="#455A64"/>
<path d="M115.85 160.59C115.836 160.61 115.679 160.512 115.406 160.317C115.13 160.128 114.76 159.808 114.336 159.38C113.485 158.529 112.482 157.143 111.819 155.396C111.163 153.647 110.997 151.931 111.068 150.716C111.101 150.108 111.165 149.618 111.247 149.288C111.321 148.956 111.373 148.777 111.396 148.781C111.459 148.793 111.316 149.529 111.314 150.723C111.308 151.914 111.507 153.569 112.144 155.269C112.788 156.965 113.726 158.329 114.514 159.207C115.3 160.091 115.888 160.539 115.85 160.59Z" fill="#455A64"/>
<path d="M73.4335 122.694L79.9946 123.065C80.4094 125.238 81.8496 128.562 81.8496 128.562C87.1308 119.195 91.2256 106.645 92.2417 101.601C92.0934 101.097 91.9184 100.539 91.6993 99.9166C91.4468 99.1979 91.6632 97.8361 91.7828 97.0805C91.9598 95.9577 92.2677 94.4464 92.3599 93.7475C92.6411 91.6165 92.9771 91.2813 93.7046 91.5223C94.6946 91.8499 93.2991 97.5078 94.1101 97.6307C94.5463 97.6969 95.0787 95.7584 95.2336 94.168C95.3886 92.5775 96.092 87.6855 96.6064 87.3592C97.3606 86.8814 98.0179 87.637 97.8275 89.2213C97.6351 90.8247 97.392 95.6041 98.2143 95.6689C99.0246 95.7331 99.7052 87.622 99.7052 87.622C99.7052 87.622 99.577 85.8569 100.53 85.8992C102.247 85.9756 100.905 94.5263 100.758 95.3365C100.655 95.9003 101.548 96.0034 101.626 95.3918C101.707 94.7625 102.121 87.2807 103.87 87.3408C105.212 87.3872 102.829 94.3871 103.584 96.0102C104.337 97.6327 104.861 90.4991 106.143 90.5974C106.62 90.6342 106.972 90.7298 106.096 94.7666C105.625 96.9365 104.241 100.925 103.031 104.228C101 115.422 92.086 151.232 78.1115 144.677C70.2919 141.009 66.6426 122.849 66.6426 122.849L73.4335 122.694Z" fill="#FFBE9D"/>
<path d="M103.03 104.237C103.023 104.234 103.046 104.152 103.097 103.992C103.157 103.811 103.234 103.579 103.33 103.288C103.549 102.642 103.855 101.737 104.245 100.585C104.634 99.4098 105.113 97.9709 105.588 96.2802C105.832 95.4358 106.029 94.5218 106.213 93.541C106.302 93.0516 106.394 92.5471 106.449 92.0291C106.473 91.7717 106.499 91.5069 106.485 91.2523C106.466 90.9861 106.426 90.769 106.221 90.7649C106.008 90.7062 105.865 90.8857 105.719 91.1117C105.586 91.339 105.481 91.6004 105.388 91.8687C105.201 92.4065 105.054 92.9785 104.909 93.5642C104.763 94.1505 104.629 94.7526 104.455 95.3662C104.349 95.6761 104.303 95.9751 104.054 96.3082C104.007 96.3484 103.965 96.4024 103.871 96.4208C103.768 96.4481 103.692 96.4071 103.62 96.3628C103.523 96.2754 103.477 96.1873 103.435 96.1054C103.36 95.9327 103.314 95.7559 103.294 95.5846C103.175 94.2147 103.481 92.8905 103.69 91.5158C103.805 90.8305 103.926 90.137 104.014 89.4346C104.057 89.0837 104.093 88.7302 104.097 88.3814C104.11 88.0578 104.055 87.6203 103.916 87.5589C103.745 87.4926 103.435 87.6906 103.272 87.98C103.087 88.2646 102.951 88.6025 102.834 88.9479C102.602 89.6421 102.451 90.3827 102.32 91.1315C102.193 91.883 102.094 92.6488 102.012 93.4249C101.974 93.814 101.937 94.2044 101.9 94.5969L101.849 95.1894C101.835 95.3498 101.835 95.685 101.584 95.8774C101.352 96.0549 101.041 96.074 100.793 95.9088C100.669 95.8269 100.572 95.6747 100.554 95.5211C100.537 95.4433 100.552 95.371 100.557 95.302L100.582 95.156C100.641 94.7601 100.7 94.3621 100.761 93.9628C100.871 93.1615 100.966 92.3512 101.042 91.5342C101.117 90.7172 101.173 89.8919 101.185 89.0639C101.187 88.2448 101.181 87.3862 100.95 86.6353C100.875 86.408 100.751 86.2005 100.614 86.1411C100.472 86.0893 100.268 86.1418 100.163 86.2879C99.9316 86.6203 99.8929 87.1677 99.9109 87.6141L99.9116 87.636L99.9102 87.6483C99.7673 89.2523 99.5969 90.8291 99.3705 92.3785C99.2536 93.1533 99.13 93.9198 98.9396 94.6782C98.8922 94.8679 98.8354 95.057 98.77 95.2467C98.6811 95.4358 98.6571 95.6283 98.3919 95.8358C98.1621 95.9477 97.9917 95.8208 97.9009 95.7259C97.8034 95.6215 97.7639 95.5184 97.7192 95.4174C97.6417 95.2167 97.6036 95.0222 97.5689 94.829C97.3565 93.2905 97.4446 91.81 97.5295 90.3581C97.5575 89.6284 97.7319 88.9063 97.6377 88.2653C97.5923 87.9479 97.4714 87.6298 97.2649 87.4879C97.1634 87.4196 97.0472 87.4039 96.9223 87.4339C96.8601 87.4537 96.7974 87.4763 96.7359 87.5145C96.6758 87.5657 96.6878 87.5466 96.6417 87.6326C96.3819 88.1902 96.2556 88.8953 96.1153 89.5329C95.9837 90.1861 95.8715 90.8352 95.7693 91.4769C95.6678 92.1185 95.5776 92.7519 95.4974 93.3758C95.4139 93.9942 95.3725 94.6215 95.2536 95.231C95.14 95.8385 95.0024 96.4297 94.786 96.9969C94.7312 97.1382 94.6684 97.2781 94.5929 97.416C94.4994 97.5443 94.4467 97.7115 94.1908 97.7914C94.0452 97.8324 93.9183 97.7306 93.8528 97.6453C93.7967 97.5573 93.7693 97.4733 93.7473 97.3928C93.7132 97.2351 93.6985 97.0849 93.6932 96.9382C93.6785 95.7751 93.8475 94.7082 93.9042 93.6782C93.9356 93.1669 93.9584 92.6618 93.9002 92.1956C93.8702 91.9765 93.8014 91.7192 93.6785 91.668C93.4994 91.5949 93.2683 91.5567 93.134 91.6557C92.8388 91.8734 92.7359 92.3731 92.6397 92.7724C92.5455 93.1942 92.5021 93.6133 92.426 94.0167C92.1481 95.631 91.8542 97.0174 91.7112 98.1511C91.6457 98.7177 91.6197 99.2289 91.6898 99.6548C91.7827 100.068 91.9183 100.434 91.9958 100.721C92.0746 100.993 92.138 101.21 92.1875 101.38C92.2282 101.53 92.2463 101.606 92.2396 101.609C92.2329 101.611 92.2022 101.538 92.1487 101.393C92.0893 101.226 92.0145 101.013 91.9196 100.747C91.8268 100.456 91.6872 100.124 91.5729 99.6781C91.4861 99.231 91.5021 98.7102 91.5562 98.1347C91.6771 96.9812 91.947 95.6044 92.2035 93.9867C92.2743 93.584 92.3124 93.1574 92.4039 92.7226C92.452 92.5048 92.4981 92.2837 92.5796 92.0611C92.6644 91.8454 92.7553 91.5984 92.9978 91.4352C93.2569 91.2707 93.5435 91.3308 93.786 91.425C94.0993 91.6079 94.1107 91.9151 94.1654 92.156C94.2336 92.6666 94.2122 93.1765 94.1855 93.6966C94.1367 94.7328 93.9784 95.8215 94.0011 96.9238C94.0065 97.0597 94.0225 97.1935 94.0492 97.315C94.0773 97.4474 94.1441 97.4986 94.1307 97.4733C94.1541 97.4781 94.2563 97.36 94.3137 97.2528C94.3765 97.1354 94.4333 97.0085 94.4834 96.8761C94.6831 96.3443 94.8154 95.7614 94.9223 95.1703C95.0338 94.5805 95.0712 93.9649 95.1521 93.3321C95.2289 92.7034 95.3164 92.0659 95.4153 91.4202C95.5148 90.7745 95.6243 90.1206 95.7546 89.4585C95.9029 88.793 95.9971 88.1363 96.3137 87.4435C96.3331 87.3739 96.4707 87.2182 96.5482 87.1807C96.6324 87.1288 96.7285 87.0906 96.8294 87.0606C97.0332 87.0053 97.283 87.036 97.468 87.163C97.8354 87.4278 97.9517 87.8394 98.0131 88.2053C98.0686 88.58 98.0499 88.9595 98.0084 89.3206C97.969 89.6708 97.9403 90.0271 97.9156 90.3854C97.8341 91.8134 97.7573 93.3096 97.9623 94.7573C97.9931 94.9341 98.0311 95.1116 98.0906 95.2631C98.1207 95.3334 98.1561 95.4092 98.1901 95.4406C98.2068 95.4645 98.2182 95.4631 98.2235 95.4672L98.2262 95.4679L98.2269 95.4699C98.2155 95.6297 98.2255 95.5034 98.2222 95.5348C98.2202 95.5048 98.2135 95.5109 98.1948 95.4761C98.2289 95.4474 98.3364 95.259 98.3879 95.1014C98.4466 94.9307 98.4994 94.7539 98.5448 94.5717C98.7265 93.8434 98.8494 93.0809 98.9637 92.3151C99.1854 90.7793 99.3551 89.2046 99.4961 87.6107V87.6442C99.4887 87.1193 99.48 86.5691 99.8341 86.0251C100.041 85.7568 100.415 85.6115 100.766 85.7466C101.113 85.9125 101.242 86.2306 101.34 86.4933C101.604 87.3664 101.596 88.223 101.598 89.068C101.585 89.9131 101.527 90.7472 101.451 91.5717C101.374 92.3963 101.277 93.2127 101.165 94.0195C101.104 94.4229 101.043 94.8249 100.982 95.2249C100.933 95.4788 100.945 95.487 101.019 95.5621C101.099 95.6242 101.254 95.6147 101.33 95.5498C101.415 95.4918 101.425 95.3723 101.443 95.1505L101.495 94.558C101.533 94.1628 101.572 93.7696 101.61 93.3785C101.694 92.5963 101.797 91.8222 101.928 91.0598C102.064 90.298 102.219 89.5452 102.464 88.8162C102.589 88.453 102.733 88.0926 102.95 87.7575C103.061 87.5923 103.189 87.4264 103.378 87.3049C103.572 87.1916 103.784 87.0886 104.073 87.2025C104.348 87.3554 104.395 87.6148 104.438 87.8039C104.467 88.0032 104.479 88.1971 104.473 88.3841C104.467 88.7602 104.428 89.1233 104.383 89.4817C104.29 90.1977 104.165 90.8933 104.047 91.5779C103.829 92.9376 103.529 94.2911 103.633 95.5334C103.649 95.6863 103.689 95.8263 103.739 95.9498C103.77 96.0119 103.804 96.0631 103.825 96.0856C103.829 96.0781 103.82 96.0733 103.809 96.1157C103.803 96.171 103.811 96.1034 103.803 96.1123C103.777 96.0699 103.796 96.0822 103.807 96.0672C103.948 95.8904 104.046 95.5478 104.134 95.2659C104.308 94.6706 104.447 94.0679 104.597 93.4802C104.747 92.8925 104.899 92.3151 105.097 91.7588C105.197 91.481 105.307 91.2079 105.462 90.9485C105.546 90.8216 105.629 90.6919 105.767 90.5868C105.827 90.5308 105.917 90.4912 106.005 90.466C106.109 90.4496 106.193 90.4516 106.262 90.4653C106.419 90.4721 106.632 90.6127 106.684 90.7813C106.749 90.9403 106.763 91.0905 106.769 91.2332C106.783 91.5212 106.752 91.7902 106.725 92.0577C106.662 92.5895 106.566 93.0966 106.471 93.5894C106.277 94.571 106.066 95.4979 105.81 96.343C105.311 98.0364 104.81 99.4685 104.396 100.637C103.98 101.805 103.642 102.705 103.408 103.314C103.295 103.6 103.205 103.827 103.135 104.004C103.072 104.162 103.036 104.24 103.03 104.237Z" fill="#EB996E"/>
<path d="M66.5684 123.475C67.8376 128.051 70.3172 135.121 72.9825 142.575C73.3679 143.652 74.8342 143.723 75.3145 142.686L81.8502 128.567C81.8502 128.567 80.2764 116.968 80.41 117.378C80.5436 117.787 66.9264 118.878 66.9264 118.878L66.5684 123.475Z" fill="#E8505B"/>
<path d="M81.2872 121.194C81.3019 121.251 80.4756 121.496 79.1816 122C77.8884 122.502 76.1382 123.301 74.3333 124.416C72.5304 125.537 71.028 126.753 69.9946 127.693C68.9592 128.633 68.364 129.268 68.322 129.228C68.3039 129.212 68.4349 129.037 68.688 128.733C68.9385 128.426 69.326 128.006 69.8276 127.509C70.8276 126.513 72.326 125.248 74.1529 124.113C75.9819 122.982 77.7722 122.209 79.0988 121.764C79.7621 121.539 80.3059 121.382 80.688 121.297C81.0687 121.209 81.2812 121.171 81.2872 121.194Z" fill="#FAFAFA"/>
<path d="M83.8766 124.716C83.8425 124.741 83.3976 124.206 82.7864 123.258C82.1752 122.312 81.4184 120.94 80.7677 119.338C80.1191 117.735 79.7036 116.218 79.4805 115.108C79.256 113.996 79.1993 113.296 79.2414 113.289C79.2941 113.28 79.4364 113.964 79.7196 115.049C80.0022 116.135 80.4484 117.619 81.089 119.202C81.7323 120.782 82.4437 122.154 82.9962 123.126C83.5479 124.099 83.92 124.685 83.8766 124.716Z" fill="#263238"/>
<path d="M88.2365 62.1846C85.9506 65.9599 85.465 70.8445 86.96 75.0226C87.6313 76.8983 88.6941 78.7508 88.4997 80.7405C88.3006 82.7787 86.7876 84.7043 87.322 86.6769C87.638 87.8428 88.6173 88.7076 88.9927 89.8543C89.4336 91.2004 88.974 92.657 88.7642 94.0617C88.2305 97.6364 89.3481 101.231 89.6253 104.837C89.9025 108.443 88.9499 112.663 85.803 114.236C84.8464 114.715 83.5959 114.852 82.8003 114.123C81.7903 113.198 82.0715 111.535 82.3481 110.169C85.1136 96.5047 76.5706 83.1937 78.5211 69.3804C78.8337 67.1661 80.0442 63.4098 81.6039 61.8604C83.1637 60.3109 87.4783 60.4993 88.9546 62.1341" fill="#263238"/>
<path d="M75.0794 101.787C75.052 101.764 75.4808 101.295 76.082 100.327C76.6806 99.3654 77.4341 97.863 77.8269 95.8576C78.0179 94.8556 78.1021 93.7396 78.0326 92.5375C77.9812 91.3355 77.8155 90.0427 77.895 88.6591C77.923 87.967 78.068 87.2633 78.2784 86.5677C78.5156 85.8817 78.8228 85.2087 79.1956 84.563C79.9431 83.2715 80.8896 82.0688 81.756 80.7835C82.6224 79.5037 83.3412 78.1474 83.5737 76.714C83.8075 75.2819 83.555 73.8629 83.3405 72.5257C83.1094 71.1878 82.9497 69.8711 83.0459 68.6466C83.1221 67.4234 83.3619 66.3006 83.6865 65.3156C84.3425 63.3395 85.3125 61.9396 86.0479 61.0679C86.418 60.6297 86.7313 60.313 86.9571 60.1144C87.1802 59.913 87.3011 59.812 87.3091 59.8209C87.3345 59.8482 86.8589 60.2659 86.1528 61.1567C85.4567 62.0461 84.5349 63.446 83.921 65.3948C83.6171 66.3661 83.3966 67.4685 83.3345 68.6637C83.2537 69.8616 83.4173 71.1319 83.6572 72.4711C83.8783 73.8042 84.1508 75.2581 83.9103 76.7707C83.6692 78.2826 82.9197 79.6894 82.0433 80.9849C81.1655 82.2859 80.223 83.4804 79.4888 84.7404C79.1228 85.3698 78.8242 86.0189 78.593 86.6762C78.3893 87.3411 78.2457 88.01 78.215 88.681C78.1288 90.0202 78.2811 91.3096 78.3212 92.5253C78.3793 93.743 78.2784 94.8918 78.068 95.9081C77.6358 97.9477 76.8349 99.4548 76.1949 100.404C75.8743 100.881 75.5951 101.229 75.398 101.457C75.1983 101.681 75.0887 101.795 75.0794 101.787Z" fill="#455A64"/>
<path d="M68.7432 102.808C68.7325 102.802 68.8047 102.645 68.9503 102.35C69.114 102.026 69.3297 101.6 69.5996 101.069C70.1587 99.9552 70.9957 98.3539 71.8187 96.2857C72.6256 94.225 73.4252 91.6435 73.45 88.7002C73.4546 87.9678 73.4025 87.2176 73.287 86.4606C73.1721 85.7023 72.999 84.9282 72.8875 84.1207C72.7806 83.316 72.7292 82.458 72.9383 81.6102C73.1453 80.7604 73.6677 80.0041 74.2976 79.4191C75.5568 78.2492 77.0759 77.4874 77.8608 76.1182C78.6644 74.7721 78.842 73.1933 79.0451 71.7408C79.2188 70.2726 79.4947 68.859 79.965 67.6167C80.4192 66.3682 81.0264 65.2836 81.6597 64.3601C82.9349 62.5048 84.353 61.3369 85.3731 60.6428C85.8868 60.296 86.3029 60.0537 86.5955 59.9117C86.8854 59.765 87.0404 59.6933 87.0458 59.7042C87.0638 59.7383 86.4472 60.0366 85.4499 60.7561C84.4633 61.4789 83.0899 62.6605 81.8621 64.5027C81.2522 65.4201 80.669 66.4918 80.2355 67.7197C79.7859 68.9443 79.5294 70.3115 79.3631 71.7838C79.166 73.237 79.003 74.8581 78.152 76.2998C77.3016 77.7741 75.7292 78.5577 74.5348 79.6792C73.9329 80.2417 73.4653 80.9235 73.2736 81.6983C73.0805 82.4737 73.1226 83.2866 73.2255 84.0723C73.3324 84.8613 73.5014 85.634 73.6156 86.4081C73.7305 87.1842 73.7799 87.9534 73.7706 88.7015C73.7272 91.7083 72.8882 94.3144 72.0465 96.3799C71.1874 98.4522 70.315 100.038 69.7185 101.133C69.4253 101.652 69.1901 102.068 69.0118 102.383C68.8461 102.668 68.7539 102.814 68.7432 102.808Z" fill="#455A64"/>
<path d="M225.494 86.3746C225.494 86.3746 225.316 86.378 224.971 86.3678C224.627 86.3528 224.114 86.3282 223.443 86.376C222.11 86.4517 220.108 86.7091 217.75 87.7172C215.419 88.724 212.691 90.5022 210.521 93.4741C209.444 94.9539 208.545 96.7334 207.997 98.7504C207.469 100.77 207.29 103.01 207.541 105.317C207.827 107.615 208.515 109.994 209.776 112.177C210.401 113.267 211.143 114.325 212.049 115.258C212.925 116.218 213.958 117.068 215.122 117.715C216.285 118.358 217.616 118.763 218.978 118.708C220.329 118.663 221.724 118.176 222.712 117.168C223.708 116.169 224.2 114.7 224.201 113.234C224.208 111.758 223.707 110.289 222.846 109.052C221.112 106.561 218.307 104.885 215.324 103.983C212.311 103.086 209.003 103.062 205.835 103.849C204.257 104.268 202.716 104.884 201.266 105.705C199.817 106.53 198.499 107.606 197.343 108.849C197.069 109.174 196.757 109.468 196.513 109.821L195.759 110.861C195.319 111.599 194.868 112.336 194.529 113.139C193.821 114.721 193.324 116.419 193.077 118.168C192.629 121.665 193.043 125.266 194.426 128.409C195.761 131.556 198.038 134.258 200.875 135.885C202.291 136.694 203.856 137.216 205.443 137.304C207.027 137.404 208.607 136.987 209.951 136.198C211.293 135.411 212.413 134.229 213.001 132.804C213.585 131.38 213.575 129.755 213.07 128.34C212.573 126.911 211.644 125.69 210.559 124.711C209.467 123.732 208.193 122.999 206.865 122.517C204.17 121.618 201.299 121.666 198.732 122.373C196.158 123.089 193.864 124.444 192.062 126.174C190.262 127.914 189 130.05 188.237 132.23C186.696 136.625 187.089 141.085 188.412 144.494C189.776 147.932 191.94 150.379 193.916 151.996C195.911 153.626 197.726 154.505 198.972 155.006C199.601 155.25 200.084 155.424 200.416 155.519C200.746 155.624 200.912 155.687 200.912 155.687C200.912 155.687 200.74 155.648 200.406 155.554C200.07 155.47 199.581 155.308 198.947 155.073C197.688 154.592 195.853 153.728 193.831 152.104C191.828 150.491 189.628 148.038 188.231 144.568C186.874 141.124 186.457 136.61 188.005 132.146C188.772 129.931 190.048 127.754 191.876 125.975C193.706 124.209 196.036 122.825 198.656 122.089C201.27 121.364 204.193 121.304 206.963 122.222C208.332 122.716 209.639 123.465 210.764 124.471C211.883 125.477 212.849 126.736 213.372 128.23C213.902 129.71 213.918 131.428 213.301 132.933C212.683 134.438 211.511 135.673 210.116 136.493C208.72 137.315 207.073 137.752 205.424 137.649C203.778 137.558 202.163 137.02 200.709 136.191C197.797 134.522 195.473 131.763 194.108 128.551C192.697 125.346 192.274 121.681 192.732 118.119C192.984 116.336 193.49 114.606 194.213 112.99C194.559 112.171 195.02 111.418 195.471 110.664L196.241 109.6C196.491 109.24 196.81 108.939 197.09 108.608C198.271 107.337 199.619 106.239 201.096 105.399C202.575 104.563 204.145 103.937 205.752 103.511C208.978 102.712 212.344 102.739 215.416 103.657C218.46 104.584 221.312 106.283 223.108 108.865C223.998 110.145 224.525 111.69 224.514 113.235C224.511 114.768 223.993 116.323 222.927 117.391C221.868 118.464 220.398 118.967 218.989 119.011C217.563 119.067 216.179 118.639 214.986 117.975C213.788 117.306 212.737 116.435 211.848 115.455C210.927 114.502 210.176 113.424 209.544 112.315C208.269 110.091 207.579 107.676 207.297 105.345C207.05 103.005 207.239 100.735 207.783 98.6897C208.346 96.6467 209.267 94.8461 210.364 93.3547C212.576 90.3588 215.341 88.5834 217.698 87.5889C220.081 86.593 222.099 86.3575 223.439 86.3043C224.114 86.2681 224.627 86.3043 224.973 86.3309C225.319 86.3534 225.494 86.3746 225.494 86.3746Z" fill="#263238"/>
<path d="M247.803 154.672H154.143V228.488H247.803V154.672Z" fill="#E8505B"/>
<path d="M154.143 154.672L171.442 171.16H263.514L247.803 154.672H154.143Z" fill="#E8505B"/>
<path d="M154.143 154.674C155.832 154.671 194.517 154.599 247.803 154.5H247.875L247.925 154.553C252.943 159.817 258.15 165.279 263.477 170.868C263.532 170.926 263.586 170.983 263.638 171.038L263.926 171.341L263.514 171.34C225.76 171.311 192.251 171.285 171.442 171.269H171.4L171.37 171.24C160.545 160.831 154.71 155.22 154.143 154.674C154.715 155.215 160.599 160.773 171.513 171.083L171.442 171.055C192.251 171.039 225.76 171.013 263.514 170.984L263.389 171.285C263.337 171.231 263.282 171.173 263.228 171.115C257.902 165.525 252.697 160.061 247.681 154.795L247.803 154.847C194.517 154.749 155.831 154.677 154.143 154.674Z" fill="#263238"/>
<path d="M182.274 188.711C181.283 188.712 180.378 189.622 180.362 190.635C180.344 191.648 181.217 192.589 182.208 192.626C183.199 192.662 184.136 191.788 184.191 190.776C184.245 189.765 183.407 188.791 182.419 188.716" fill="#263238"/>
<path d="M204.389 188.711C203.398 188.712 202.494 189.622 202.477 190.635C202.459 191.648 203.333 192.589 204.323 192.626C205.314 192.662 206.251 191.788 206.306 190.776C206.361 189.765 205.522 188.791 204.534 188.716" fill="#263238"/>
<path d="M204.531 206.382C204.431 206.424 204.283 204.535 202.677 202.139C201.889 200.951 200.707 199.691 199.139 198.67C197.581 197.648 195.601 196.914 193.463 196.834C191.323 196.794 189.307 197.416 187.696 198.349C186.075 199.281 184.828 200.473 183.976 201.615C182.244 203.917 181.996 205.796 181.898 205.747C181.886 205.744 181.905 205.634 181.952 205.424C182.009 205.218 182.052 204.899 182.197 204.518C182.439 203.739 182.93 202.647 183.78 201.463C184.625 200.277 185.883 199.036 187.538 198.064C189.183 197.091 191.258 196.436 193.473 196.479C195.686 196.56 197.722 197.331 199.312 198.395C200.912 199.458 202.102 200.767 202.881 201.999C203.667 203.229 204.098 204.347 204.298 205.138C204.422 205.527 204.448 205.848 204.494 206.057C204.53 206.268 204.543 206.38 204.531 206.382Z" fill="#263238"/>
<path opacity="0.5" d="M154.355 155.484L170.919 176.944H247.803V171.16H171.442L154.355 155.484Z" fill="black"/>
<path d="M229.334 228.319C229.238 228.319 229.16 215.48 229.16 199.645C229.16 183.805 229.238 170.969 229.334 170.969C229.43 170.969 229.508 183.805 229.508 199.645C229.508 215.48 229.43 228.319 229.334 228.319Z" fill="#263238"/>
<path d="M244.041 211.586H235.785V221.122H244.041V211.586Z" fill="#F5F5F5"/>
<path d="M154.143 154.672L134.914 171.16H154.143V154.672Z" fill="#E8505B"/>
<g opacity="0.4">
<path d="M154.143 154.672L134.914 171.16H154.143V154.672Z" fill="black"/>
</g>
<path d="M250.567 228.484H142.879V313.355H250.567V228.484Z" fill="#E8505B"/>
<path opacity="0.3" d="M250.567 228.484H142.879V313.355H250.567V228.484Z" fill="black"/>
<path d="M223.586 312.758C223.49 312.758 223.412 293.841 223.412 270.51C223.412 247.171 223.49 228.258 223.586 228.258C223.681 228.258 223.759 247.171 223.759 270.51C223.759 293.841 223.682 312.758 223.586 312.758Z" fill="#263238"/>
<path d="M241.436 294.039H233.18V303.575H241.436V294.039Z" fill="#F5F5F5"/>
<path d="M187.962 228.703H175.73V246.813H187.962V228.703Z" fill="#263238"/>
<path d="M187.962 294.992H175.73V313.102H187.962V294.992Z" fill="#263238"/>
<path d="M249.628 228.483C249.628 228.489 249.534 228.496 249.352 228.502C249.154 228.506 248.885 228.512 248.543 228.519C247.814 228.527 246.769 228.539 245.433 228.553C242.714 228.566 238.81 228.586 233.994 228.609C224.32 228.622 210.985 228.64 196.255 228.66C181.521 228.64 168.185 228.622 158.511 228.609C153.695 228.585 149.792 228.566 147.073 228.553C145.737 228.539 144.693 228.528 143.963 228.519C143.621 228.512 143.353 228.506 143.154 228.502C142.972 228.496 142.879 228.489 142.879 228.483C142.879 228.477 142.972 228.471 143.154 228.465C143.353 228.461 143.62 228.455 143.963 228.447C144.693 228.439 145.737 228.428 147.073 228.414C149.791 228.4 153.694 228.381 158.511 228.357C168.185 228.344 181.521 228.325 196.255 228.305C210.984 228.325 224.319 228.344 233.994 228.357C238.81 228.381 242.714 228.401 245.433 228.414C246.769 228.428 247.814 228.439 248.543 228.447C248.885 228.455 249.154 228.461 249.352 228.465C249.535 228.471 249.628 228.477 249.628 228.483Z" fill="#263238"/>
<path d="M65.0754 81.5465C64.3005 81.3519 60.569 80.4148 53.3493 78.6025L53.4355 78.5889C50.857 80.2694 47.3633 81.6257 43.3133 81.6898C41.2986 81.6823 39.1677 81.4345 37.0407 80.754C34.9158 80.0776 32.827 78.9554 30.9285 77.4428C27.1296 74.4402 24.1717 69.628 23.5331 64.0888C23.2071 61.3374 23.4256 58.4446 24.2632 55.6754C25.1163 52.913 26.5885 50.296 28.5712 48.0926C29.5765 46.9281 30.7595 45.9623 31.9673 45.0688C32.6012 44.6688 33.2265 44.2531 33.8798 43.9016L34.8771 43.4108L35.3741 43.1664L35.8904 42.9733C38.6226 41.8907 41.5304 41.4716 44.3213 41.6613C47.1155 41.845 49.7915 42.6436 52.1322 43.9022C54.4769 45.1582 56.4869 46.8633 58.0647 48.7991C59.6465 50.7355 60.7968 52.9007 61.5283 55.0863C62.2591 57.2747 62.5924 59.476 62.6118 61.5558C62.6358 65.7339 61.358 69.3181 59.8028 71.9351L59.8042 71.8272C63.0647 77.8387 64.712 80.8762 65.0754 81.5465C64.6993 80.8837 62.9946 77.879 59.6212 71.933L59.5904 71.8791L59.6225 71.8245C61.1382 69.2211 62.374 65.6758 62.3279 61.5578C62.2978 59.508 61.9592 57.3422 61.2317 55.1928C60.5036 53.0454 59.3653 50.9219 57.8042 49.0236C56.2477 47.1261 54.2691 45.4572 51.9645 44.2299C49.6639 43.0006 47.038 42.2224 44.2972 42.0463C41.5591 41.8647 38.7087 42.2784 36.0314 43.3418L35.5251 43.5316L35.0381 43.7712L34.0608 44.2524C33.4202 44.5971 32.8083 45.0053 32.1864 45.3971C31.0034 46.2735 29.843 47.2203 28.8577 48.3615C26.9139 50.5219 25.4703 53.0863 24.632 55.7928C23.809 58.506 23.5919 61.3435 23.9079 64.0424C24.5264 69.4744 27.4162 74.2033 31.1403 77.1664C33.0013 78.6585 35.0508 79.769 37.1383 80.4427C39.2278 81.1205 41.324 81.3738 43.3093 81.3922C47.2999 81.3499 50.7541 80.0366 53.3179 78.3964L53.3587 78.3704L53.4041 78.3827C60.5904 80.3308 64.3052 81.3376 65.0754 81.5465Z" fill="#263238"/>
<path d="M41.3913 52.7642L42.0112 62.7728C42.0619 63.5912 42.7019 64.2424 43.5028 64.2916C44.3478 64.3428 45.084 63.7086 45.1768 62.8486L46.2643 52.7894C46.3465 52.0277 45.7573 51.3649 45.0071 51.3751L42.6177 51.4092C41.9056 51.4195 41.3458 52.0372 41.3913 52.7642Z" fill="#E8505B"/>
<path d="M46.0997 69.9241C45.6835 71.2046 44.3308 71.8981 43.0776 71.4728C41.8245 71.0476 41.1458 69.6654 41.5619 68.3849C41.9781 67.1043 43.3308 66.4108 44.584 66.8361C45.8371 67.2607 46.5158 68.6436 46.0997 69.9241Z" fill="#E8505B"/>
</svg>
