<svg width="181" height="60" viewBox="0 0 181 60" fill="none" xmlns="http://www.w3.org/2000/svg">
<g clip-path="url(#clip0_1790_53665)">
<path d="M32.4061 17.9973C32.4061 20.6678 30.2218 22.8383 27.5346 22.8383H4.8715C2.18423 22.8383 0 20.6678 0 17.9973C0 15.3268 2.18423 13.1562 4.8715 13.1562H27.5346C30.2218 13.1562 32.4061 15.3268 32.4061 17.9973Z" fill="#F1583E"/>
<path d="M32.4061 17.9973C32.4061 20.6678 30.2218 22.8383 27.5346 22.8383H4.8715C2.18423 22.8383 0 20.6678 0 17.9973C0 15.3268 2.18423 13.1562 4.8715 13.1562H27.5346C30.2218 13.1562 32.4061 15.3268 32.4061 17.9973Z" fill="url(#paint0_linear_1790_53665)"/>
<path d="M31.0287 14.5536C32.9349 16.4479 32.9349 19.513 31.0287 21.3942L8.59066 43.6919C6.68442 45.5862 3.60002 45.5862 1.70702 43.6919C-0.199216 41.7976 -0.199216 38.7325 1.70702 36.8513L24.145 14.5536C26.0513 12.6592 29.1357 12.6592 31.0287 14.5536Z" fill="#F44E32"/>
<path d="M31.0287 14.5536C32.9349 16.4479 32.9349 19.513 31.0287 21.3942L8.59066 43.6919C6.68442 45.5862 3.60002 45.5862 1.70702 43.6919C-0.199216 41.7976 -0.199216 38.7325 1.70702 36.8513L24.145 14.5536C26.0513 12.6592 29.1357 12.6592 31.0287 14.5536Z" fill="url(#paint1_linear_1790_53665)"/>
<path d="M27.8789 35.4297C30.5661 35.4297 32.7504 37.6003 32.7504 40.2707C32.7504 42.9412 30.5661 45.1118 27.8789 45.1118H26.7934C24.1061 45.1118 21.9219 42.9412 21.9219 40.2707C21.9219 37.6003 24.1061 35.4297 26.7934 35.4297H27.8789Z" fill="#D54029"/>
<path d="M27.8789 35.4297C30.5661 35.4297 32.7504 37.6003 32.7504 40.2707C32.7504 42.9412 30.5661 45.1118 27.8789 45.1118H26.7934C24.1061 45.1118 21.9219 42.9412 21.9219 40.2707C21.9219 37.6003 24.1061 35.4297 26.7934 35.4297H27.8789Z" fill="url(#paint2_radial_1790_53665)"/>
<path d="M151.135 30.6365L139.724 57.3017C139.023 58.9461 137.408 59.9985 135.621 59.9985H135.065C131.821 59.9985 129.664 56.6703 130.987 53.7367L134.998 44.8965C135.25 44.3309 135.263 43.6863 135.025 43.1206L125.163 19.8362C123.918 16.9158 126.089 13.6797 129.28 13.6797H130.259C132.126 13.6797 133.807 14.8373 134.442 16.5738L139.618 30.4918C139.976 31.4653 141.353 31.4521 141.71 30.4918L144.291 23.4933L146.29 18.4418L151.135 30.6365Z" fill="#211824"/>
<path d="M151.135 30.6365L139.724 57.3017C139.023 58.9461 137.408 59.9985 135.621 59.9985H135.065C131.821 59.9985 129.664 56.6703 130.987 53.7367L134.998 44.8965C135.25 44.3309 135.263 43.6863 135.025 43.1206L125.163 19.8362C123.918 16.9158 126.089 13.6797 129.28 13.6797H130.259C132.126 13.6797 133.807 14.8373 134.442 16.5738L139.618 30.4918C139.976 31.4653 141.353 31.4521 141.71 30.4918L144.291 23.4933L146.29 18.4418L151.135 30.6365Z" fill="#D54029"/>
<path d="M151.135 30.6365L139.724 57.3017C139.023 58.9461 137.408 59.9985 135.621 59.9985H135.065C131.821 59.9985 129.664 56.6703 130.987 53.7367L134.998 44.8965C135.25 44.3309 135.263 43.6863 135.025 43.1206L125.163 19.8362C123.918 16.9158 126.089 13.6797 129.28 13.6797H130.259C132.126 13.6797 133.807 14.8373 134.442 16.5738L139.618 30.4918C139.976 31.4653 141.353 31.4521 141.71 30.4918L144.291 23.4933L146.29 18.4418L151.135 30.6365Z" fill="#F44E32"/>
<path d="M45.8962 10.4212C44.2018 10.4212 42.7986 9.9345 41.6999 8.96103C40.6408 7.9481 40.1113 6.71152 40.1113 5.25132C40.1113 3.79111 40.6408 2.51508 41.6999 1.54161C42.7986 0.52867 44.1886 0.015625 45.8962 0.015625C47.6039 0.015625 48.9144 0.52867 49.9735 1.54161C51.0722 2.51508 51.615 3.75165 51.615 5.25132C51.615 6.75099 51.0722 7.9481 49.9735 8.96103C48.9144 9.9345 47.551 10.4212 45.8962 10.4212ZM45.8565 13.6837C48.5305 13.6837 50.7015 15.8411 50.7015 18.4984V40.2831C50.7015 42.9404 48.5305 45.0978 45.8565 45.0978C43.1825 45.0978 41.0115 42.9404 41.0115 40.2831V18.4853C41.0115 15.8279 43.1825 13.6705 45.8565 13.6705V13.6837Z" fill="#211824"/>
<path d="M45.8962 10.4212C44.2018 10.4212 42.7986 9.9345 41.6999 8.96103C40.6408 7.9481 40.1113 6.71152 40.1113 5.25132C40.1113 3.79111 40.6408 2.51508 41.6999 1.54161C42.7986 0.52867 44.1886 0.015625 45.8962 0.015625C47.6039 0.015625 48.9144 0.52867 49.9735 1.54161C51.0722 2.51508 51.615 3.75165 51.615 5.25132C51.615 6.75099 51.0722 7.9481 49.9735 8.96103C48.9144 9.9345 47.551 10.4212 45.8962 10.4212ZM45.8565 13.6837C48.5305 13.6837 50.7015 15.8411 50.7015 18.4984V40.2831C50.7015 42.9404 48.5305 45.0978 45.8565 45.0978C43.1825 45.0978 41.0115 42.9404 41.0115 40.2831V18.4853C41.0115 15.8279 43.1825 13.6705 45.8565 13.6705V13.6837Z" fill="#D54029"/>
<path d="M45.8962 10.4212C44.2018 10.4212 42.7986 9.9345 41.6999 8.96103C40.6408 7.9481 40.1113 6.71152 40.1113 5.25132C40.1113 3.79111 40.6408 2.51508 41.6999 1.54161C42.7986 0.52867 44.1886 0.015625 45.8962 0.015625C47.6039 0.015625 48.9144 0.52867 49.9735 1.54161C51.0722 2.51508 51.615 3.75165 51.615 5.25132C51.615 6.75099 51.0722 7.9481 49.9735 8.96103C48.9144 9.9345 47.551 10.4212 45.8962 10.4212ZM45.8565 13.6837C48.5305 13.6837 50.7015 15.8411 50.7015 18.4984V40.2831C50.7015 42.9404 48.5305 45.0978 45.8565 45.0978C43.1825 45.0978 41.0115 42.9404 41.0115 40.2831V18.4853C41.0115 15.8279 43.1825 13.6705 45.8565 13.6705V13.6837Z" fill="#F44E32"/>
<path d="M108.337 13.1953L97.5746 13.761L95.6816 16.1947L98.1306 21.2593L108.324 13.1953H108.337Z" fill="#211824"/>
<path d="M108.337 13.1953L97.5746 13.761L95.6816 16.1947L98.1306 21.2593L108.324 13.1953H108.337Z" fill="#D54029"/>
<path d="M108.337 13.1953L97.5746 13.761L95.6816 16.1947L98.1306 21.2593L108.324 13.1953H108.337Z" fill="#F44E32"/>
<path fill-rule="evenodd" clip-rule="evenodd" d="M74.1451 13.2085V13.1953L64.6006 13.6952H57.161C55.9299 13.6952 54.9238 14.695 54.9238 15.9184V48.477C54.9238 49.7005 55.9299 50.7002 57.161 50.7002H62.3767C63.6078 50.7002 64.6139 49.7005 64.6139 48.477V47.5562C64.6139 46.3196 65.6332 45.3198 66.8908 45.333L72.4771 45.4382C73.086 45.5172 73.7082 45.5566 74.3569 45.5566C76.9647 45.5566 79.321 44.8989 81.4391 43.5834C83.5571 42.2284 85.2118 40.3341 86.4165 37.9004C87.6608 35.4273 88.283 32.5726 88.283 29.3497C88.283 26.1267 87.6608 23.2852 86.4165 20.8515C85.2118 18.4179 83.5439 16.5367 81.4391 15.2212C79.321 13.9057 76.9647 13.2479 74.3569 13.2479C74.3039 13.2479 74.2377 13.2479 74.1848 13.2479C74.1848 13.2479 74.1715 13.2479 74.1848 13.2348L74.1451 13.2085ZM78.3944 29.3234C78.3944 26.916 77.7193 25.048 76.3558 23.693C75.032 22.2986 73.3905 21.6145 71.4313 21.6145C69.4721 21.6145 67.8571 22.3117 66.5069 23.693C65.1831 25.0874 64.5212 26.9818 64.5212 29.376C64.5212 31.7702 65.1831 33.6777 66.5069 35.0589C67.8704 36.4534 69.5118 37.1374 71.4313 37.1374C73.3508 37.1374 75.0055 36.4402 76.3558 35.0589C77.7193 33.6382 78.3944 31.7176 78.3944 29.3234Z" fill="#211824"/>
<path fill-rule="evenodd" clip-rule="evenodd" d="M74.1451 13.2085V13.1953L64.6006 13.6952H57.161C55.9299 13.6952 54.9238 14.695 54.9238 15.9184V48.477C54.9238 49.7005 55.9299 50.7002 57.161 50.7002H62.3767C63.6078 50.7002 64.6139 49.7005 64.6139 48.477V47.5562C64.6139 46.3196 65.6332 45.3198 66.8908 45.333L72.4771 45.4382C73.086 45.5172 73.7082 45.5566 74.3569 45.5566C76.9647 45.5566 79.321 44.8989 81.4391 43.5834C83.5571 42.2284 85.2118 40.3341 86.4165 37.9004C87.6608 35.4273 88.283 32.5726 88.283 29.3497C88.283 26.1267 87.6608 23.2852 86.4165 20.8515C85.2118 18.4179 83.5439 16.5367 81.4391 15.2212C79.321 13.9057 76.9647 13.2479 74.3569 13.2479C74.3039 13.2479 74.2377 13.2479 74.1848 13.2479C74.1848 13.2479 74.1715 13.2479 74.1848 13.2348L74.1451 13.2085ZM78.3944 29.3234C78.3944 26.916 77.7193 25.048 76.3558 23.693C75.032 22.2986 73.3905 21.6145 71.4313 21.6145C69.4721 21.6145 67.8571 22.3117 66.5069 23.693C65.1831 25.0874 64.5212 26.9818 64.5212 29.376C64.5212 31.7702 65.1831 33.6777 66.5069 35.0589C67.8704 36.4534 69.5118 37.1374 71.4313 37.1374C73.3508 37.1374 75.0055 36.4402 76.3558 35.0589C77.7193 33.6382 78.3944 31.7176 78.3944 29.3234Z" fill="#D54029"/>
<path fill-rule="evenodd" clip-rule="evenodd" d="M74.1451 13.2085V13.1953L64.6006 13.6952H57.161C55.9299 13.6952 54.9238 14.695 54.9238 15.9184V48.477C54.9238 49.7005 55.9299 50.7002 57.161 50.7002H62.3767C63.6078 50.7002 64.6139 49.7005 64.6139 48.477V47.5562C64.6139 46.3196 65.6332 45.3198 66.8908 45.333L72.4771 45.4382C73.086 45.5172 73.7082 45.5566 74.3569 45.5566C76.9647 45.5566 79.321 44.8989 81.4391 43.5834C83.5571 42.2284 85.2118 40.3341 86.4165 37.9004C87.6608 35.4273 88.283 32.5726 88.283 29.3497C88.283 26.1267 87.6608 23.2852 86.4165 20.8515C85.2118 18.4179 83.5439 16.5367 81.4391 15.2212C79.321 13.9057 76.9647 13.2479 74.3569 13.2479C74.3039 13.2479 74.2377 13.2479 74.1848 13.2479C74.1848 13.2479 74.1715 13.2479 74.1848 13.2348L74.1451 13.2085ZM78.3944 29.3234C78.3944 26.916 77.7193 25.048 76.3558 23.693C75.032 22.2986 73.3905 21.6145 71.4313 21.6145C69.4721 21.6145 67.8571 22.3117 66.5069 23.693C65.1831 25.0874 64.5212 26.9818 64.5212 29.376C64.5212 31.7702 65.1831 33.6777 66.5069 35.0589C67.8704 36.4534 69.5118 37.1374 71.4313 37.1374C73.3508 37.1374 75.0055 36.4402 76.3558 35.0589C77.7193 33.6382 78.3944 31.7176 78.3944 29.3234Z" fill="#F44E32"/>
<path fill-rule="evenodd" clip-rule="evenodd" d="M109.649 13.2085V13.1953L100.105 13.6952H92.6649C91.4338 13.6952 90.4277 14.695 90.4277 15.9184V48.477C90.4277 49.7005 91.4338 50.7002 92.6649 50.7002H97.8806C99.1117 50.7002 100.118 49.7005 100.118 48.477V47.5562C100.118 46.3196 101.137 45.3198 102.395 45.333L107.981 45.4382C108.59 45.5172 109.212 45.5566 109.861 45.5566C112.469 45.5566 114.825 44.8989 116.943 43.5834C119.061 42.2284 120.716 40.3341 121.92 37.9004C123.165 35.4273 123.787 32.5726 123.787 29.3497C123.787 26.1267 123.165 23.2852 121.92 20.8515C120.716 18.4179 119.048 16.5367 116.943 15.2212C114.825 13.9057 112.469 13.2479 109.861 13.2479C109.808 13.2479 109.742 13.2479 109.689 13.2479C109.689 13.2479 109.675 13.2479 109.689 13.2348L109.649 13.2085ZM113.912 29.3234C113.912 26.916 113.236 25.048 111.873 23.693C110.549 22.2986 108.908 21.6145 106.948 21.6145C104.989 21.6145 103.374 22.3117 102.024 23.693C100.7 25.0874 100.038 26.9818 100.038 29.376C100.038 31.7702 100.7 33.6777 102.024 35.0589C103.388 36.4534 105.029 37.1374 106.948 37.1374C108.868 37.1374 110.523 36.4402 111.873 35.0589C113.236 33.6382 113.912 31.7176 113.912 29.3234Z" fill="#211824"/>
<path fill-rule="evenodd" clip-rule="evenodd" d="M109.649 13.2085V13.1953L100.105 13.6952H92.6649C91.4338 13.6952 90.4277 14.695 90.4277 15.9184V48.477C90.4277 49.7005 91.4338 50.7002 92.6649 50.7002H97.8806C99.1117 50.7002 100.118 49.7005 100.118 48.477V47.5562C100.118 46.3196 101.137 45.3198 102.395 45.333L107.981 45.4382C108.59 45.5172 109.212 45.5566 109.861 45.5566C112.469 45.5566 114.825 44.8989 116.943 43.5834C119.061 42.2284 120.716 40.3341 121.92 37.9004C123.165 35.4273 123.787 32.5726 123.787 29.3497C123.787 26.1267 123.165 23.2852 121.92 20.8515C120.716 18.4179 119.048 16.5367 116.943 15.2212C114.825 13.9057 112.469 13.2479 109.861 13.2479C109.808 13.2479 109.742 13.2479 109.689 13.2479C109.689 13.2479 109.675 13.2479 109.689 13.2348L109.649 13.2085ZM113.912 29.3234C113.912 26.916 113.236 25.048 111.873 23.693C110.549 22.2986 108.908 21.6145 106.948 21.6145C104.989 21.6145 103.374 22.3117 102.024 23.693C100.7 25.0874 100.038 26.9818 100.038 29.376C100.038 31.7702 100.7 33.6777 102.024 35.0589C103.388 36.4534 105.029 37.1374 106.948 37.1374C108.868 37.1374 110.523 36.4402 111.873 35.0589C113.236 33.6382 113.912 31.7176 113.912 29.3234Z" fill="#D54029"/>
<path fill-rule="evenodd" clip-rule="evenodd" d="M109.649 13.2085V13.1953L100.105 13.6952H92.6649C91.4338 13.6952 90.4277 14.695 90.4277 15.9184V48.477C90.4277 49.7005 91.4338 50.7002 92.6649 50.7002H97.8806C99.1117 50.7002 100.118 49.7005 100.118 48.477V47.5562C100.118 46.3196 101.137 45.3198 102.395 45.333L107.981 45.4382C108.59 45.5172 109.212 45.5566 109.861 45.5566C112.469 45.5566 114.825 44.8989 116.943 43.5834C119.061 42.2284 120.716 40.3341 121.92 37.9004C123.165 35.4273 123.787 32.5726 123.787 29.3497C123.787 26.1267 123.165 23.2852 121.92 20.8515C120.716 18.4179 119.048 16.5367 116.943 15.2212C114.825 13.9057 112.469 13.2479 109.861 13.2479C109.808 13.2479 109.742 13.2479 109.689 13.2479C109.689 13.2479 109.675 13.2479 109.689 13.2348L109.649 13.2085ZM113.912 29.3234C113.912 26.916 113.236 25.048 111.873 23.693C110.549 22.2986 108.908 21.6145 106.948 21.6145C104.989 21.6145 103.374 22.3117 102.024 23.693C100.7 25.0874 100.038 26.9818 100.038 29.376C100.038 31.7702 100.7 33.6777 102.024 35.0589C103.388 36.4534 105.029 37.1374 106.948 37.1374C108.868 37.1374 110.523 36.4402 111.873 35.0589C113.236 33.6382 113.912 31.7176 113.912 29.3234Z" fill="#F44E32"/>
<path d="M109.092 45.4626L98.7131 45.2785L96.6348 38.1484L109.092 45.4626Z" fill="#211824"/>
<path d="M109.092 45.4626L98.7131 45.2785L96.6348 38.1484L109.092 45.4626Z" fill="#D54029"/>
<path d="M109.092 45.4626L98.7131 45.2785L96.6348 38.1484L109.092 45.4626Z" fill="#F44E32"/>
<path d="M176.261 13.685C179.649 13.685 181.94 17.1316 180.616 20.2231L164.836 57.1492C164.095 58.8725 162.387 60.0038 160.494 60.0038C157.079 60.0038 154.789 56.5046 156.192 53.4L159.938 45.1255C160.256 44.4283 160.269 43.6127 159.965 42.9023L150.42 20.3415C149.083 17.1711 151.427 13.6719 154.882 13.6719H155.04C157.066 13.6719 158.879 14.9216 159.568 16.8159L164.294 29.5368C164.77 30.826 166.61 30.826 167.087 29.5368L171.786 16.7633C172.475 14.9084 174.248 13.6719 176.234 13.6719L176.261 13.685Z" fill="#F44E32"/>
</g>
<defs>
<linearGradient id="paint0_linear_1790_53665" x1="33.3195" y1="12.2354" x2="1.40489" y2="23.1046" gradientUnits="userSpaceOnUse">
<stop stop-color="#8F221E"/>
<stop offset="0.91" stop-color="#F0593F"/>
</linearGradient>
<linearGradient id="paint1_linear_1790_53665" x1="30.6427" y1="8.67994" x2="2.58489" y2="49.3736" gradientUnits="userSpaceOnUse">
<stop stop-color="#FBAFA3" stop-opacity="0.47"/>
<stop offset="1" stop-color="#D54029" stop-opacity="0"/>
</linearGradient>
<radialGradient id="paint2_radial_1790_53665" cx="0" cy="0" r="1" gradientUnits="userSpaceOnUse" gradientTransform="translate(32.8197 36.7126) rotate(130.507) scale(10.3144 9.29485)">
<stop offset="0.1" stop-color="#F49382"/>
<stop offset="0.64" stop-color="#F0583F"/>
</radialGradient>
<clipPath id="clip0_1790_53665">
<rect width="181" height="60" fill="white"/>
</clipPath>
</defs>
</svg>
